<?xml version="1.0" encoding="iso-8859-1"?>
<!-- Generator: Adobe Illustrator 18.1.1, SVG Export Plug-In . SVG Version: 6.00 Build 0)  -->
<svg version="1.1" id="Capa_1" xmlns="http://www.w3.org/2000/svg" xmlns:xlink="http://www.w3.org/1999/xlink" x="0px" y="0px"
	 viewBox="0 0 24.443 24.443" style="enable-background:new 0 0 24.443 24.443;" xml:space="preserve">
<g>
	<path style="fill:#090609;" d="M20.021,0H4.421c-1.08,0-1.957,0.878-1.957,1.958v20.528c0,1.08,0.877,1.957,1.957,1.957h15.599
		c1.079,0,1.958-0.877,1.958-1.957V1.958C21.979,0.878,21.1,0,20.021,0z M20.649,22.486c0,0.348-0.283,0.629-0.629,0.629H4.421
		c-0.346,0-0.628-0.281-0.628-0.629V1.958c0-0.347,0.282-0.629,0.628-0.629h15.599c0.346,0,0.629,0.282,0.629,0.629V22.486z
		 M5.951,3.126H18.49v1.827H5.951V3.126z M13.757,9.15H5.951V8.013h7.806V9.15z M13.757,11.695H5.951v-1.138h7.806V11.695z
		 M13.757,14.156H5.951v-1.137h7.806V14.156z M13.757,16.634H5.951v-1.137h7.806V16.634z M5.951,17.732H18.49v1.137H5.951V17.732z
		 M14.67,16.634h3.82V8.022h-3.82C14.671,8.022,14.671,16.634,14.67,16.634z M15.336,8.686h2.49v7.284h-2.49V8.686z"/>
</g>
<g>
</g>
<g>
</g>
<g>
</g>
<g>
</g>
<g>
</g>
<g>
</g>
<g>
</g>
<g>
</g>
<g>
</g>
<g>
</g>
<g>
</g>
<g>
</g>
<g>
</g>
<g>
</g>
<g>
</g>
</svg>
